/* XPM */
static char * vim16_xpm[] = {
"16 16 117 2",
"  	c None",
". 	c #A3C5A9",
"+ 	c #9AC5A1",
"@ 	c #6F6F6F",
"# 	c #A0A0A0",
"$ 	c #9F9F9F",
"% 	c #9D9D9D",
"& 	c #989898",
"* 	c #7D9E83",
"= 	c #94CB9E",
"- 	c #8ECA99",
"; 	c #7FA286",
"> 	c #999799",
", 	c #939393",
"' 	c #919191",
") 	c #8F8F8F",
"! 	c #7A7A7A",
"~ 	c #A3A3A3",
"{ 	c #ADADAD",
"] 	c #B0B0B0",
"^ 	c #707D73",
"/ 	c #79B785",
"( 	c #7BC189",
"_ 	c #76BF85",
": 	c #69B078",
"< 	c #8F9790",
"[ 	c #ACACAC",
"} 	c #ABABAB",
"| 	c #AEAEAE",
"1 	c #4A4A4A",
"2 	c #9E9E9E",
"3 	c #B7B7B7",
"4 	c #BBBBBC",
"5 	c #5B8564",
"6 	c #6BBC7C",
"7 	c #62B775",
"8 	c #5EB771",
"9 	c #649C71",
"0 	c #B4B3B4",
"a 	c #B6B6B6",
"b 	c #B9B9B9",
"c 	c #4D4D4D",
"d 	c #A5A5A5",
"e 	c #C1C1C1",
"f 	c #C5C4C5",
"g 	c #50845C",
"h 	c #55B46B",
"i 	c #4CB064",
"j 	c #5C9C6C",
"k 	c #BEBDBE",
"l 	c #BFBFBF",
"m 	c #C2C2C2",
"n 	c #516F5B",
"o 	c #B0B3B0",
"p 	c #CBCBCB",
"q 	c #CFCECF",
"r 	c #4A8258",
"s 	c #4CB265",
"t 	c #60A06F",
"u 	c #C8C7C8",
"v 	c #C9C9C9",
"w 	c #CBCBCC",
"x 	c #53715C",
"y 	c #228540",
"z 	c #197E39",
"A 	c #4DA160",
"B 	c #929994",
"C 	c #A8A8A8",
"D 	c #BDBCBD",
"E 	c #448254",
"F 	c #63A172",
"G 	c #C9C8C9",
"H 	c #C7C7C7",
"I 	c #C4C4C4",
"J 	c #56705E",
"K 	c #18833C",
"L 	c #128434",
"M 	c #047628",
"N 	c #00641E",
"O 	c #008326",
"P 	c #8F9891",
"Q 	c #A19FA0",
"R 	c #637D68",
"S 	c #A1A0A1",
"T 	c #9C9C9C",
"U 	c #9F9E9E",
"V 	c #47614D",
"W 	c #007825",
"X 	c #007D23",
"Y 	c #007521",
"Z 	c #006A1D",
"` 	c #005A17",
" .	c #8E948F",
"..	c #A2A2A2",
"+.	c #47604C",
"@.	c #007520",
"#.	c #007621",
"$.	c #005B17",
"%.	c #48614D",
"&.	c #9C9C9D",
"*.	c #9B9B9B",
"=.	c #465D4B",
"-.	c #8E8E8E",
";.	c #929292",
">.	c #8D8D8D",
",.	c #425948",
"'.	c #007320",
").	c #7D7D7D",
"!.	c #7B7C7C",
"~.	c #3E3E3E",
"{.	c #006C1D",
"].	c #006F1E",
"^.	c #00681B",
"/.	c #696969",
"(.	c #3A3A3A",
"_.	c #005213",
":.	c #004B12",
"                                ",
"              . +               ",
"  @ # $ % & * = - ; > , ' ) !   ",
"    ~ { ] ^ / ( _ : < [ } | 1   ",
"    2 3 4 5 6 7 8 9 0 a b c     ",
"    d e f g h i j k l m n       ",
"    o p q r s t u v w x y z     ",
"  A B C D E F G H I J K L M N   ",
"  O P % Q R S T U V W X Y Z `   ",
"     .% 2 ..% # +.@.X #.Z $.    ",
"    ) % 2 2 # %.@.X #.Z $.      ",
"    ' % &.*.=.@.X #.Z $.        ",
"    -.;.>.,.'.X #.Z $.          ",
"    ).!.~.  {.].^.`             ",
"    /.(.      _.:.              ",
"                                "};
